# xmcd
#
# Track frame offsets:
#	150
#	5602
#	28005
#	47857
#	71095
#	88482
#	104955
#	125340
#	141557
#	161665
#	181860
#
# Disc length: 2645 seconds
#
# Revision: 1
# Processed by: cddbd v1.5.1PL0 Copyright (c) Steve Scherf et al.
# Submitted via: CDex 1.50Beta5
#
DISCID=a70a530b
DTITLE=naomi yoshimura - muse
DYEAR=1900
DGENRE=
TTITLE0=prologue to muse
TTITLE1=花-album version-
TTITLE2=一秒単位の果実
TTITLE3=コンペイトウ
TTITLE4=羽に耳を澄まして
TTITLE5=オレンジのすきま
TTITLE6=the door
TTITLE7=何度だって好きになる
TTITLE8=らくがき
TTITLE9=涙のてっぺん
TTITLE10=幸せの湯
EXTD=
EXTT0=
EXTT1=
EXTT2=
EXTT3=
EXTT4=
EXTT5=
EXTT6=
EXTT7=
EXTT8=
EXTT9=
EXTT10=
PLAYORDER=
